<?xml version="1.0" encoding="utf-8"?>
<svg viewBox="1657.917236328125 898.9110717773438 177.0003662109375 180.70037841796875" width="177.0003662109375" height="180.70037841796875" xmlns="http://www.w3.org/2000/svg"><path fill="#CCCCCC" d="M1375.1,1533.9c20.1-18.8,21.5-26.2,29.5-25.1c0,0-10.4,16.4-9,28.5c1.3,12,1.3,27.8-7.8,33.2&#10;&#9;&#9;&#9;c0,0,19.5-4.2,22.4-29.9c2.1-18.4,8-24.9,11.2-27.2c3.2,2.2,9.1,8.7,11.2,27.2c2.9,25.8,22.4,29.9,22.4,29.9&#10;&#9;&#9;&#9;c-9.1-5.4-9.1-21.2-7.8-33.2c1.3-12-9-28.5-9-28.5c8-1.1,9.5,6.3,29.5,25.1c20.1,18.8,42.2-0.8,42.2-0.8&#10;&#9;&#9;&#9;c-13.1,3.7-31.4-5.8-40.1-22c-8.7-16.2-25.3-20.8-25.3-20.8c11.7-11.2-0.3-14.8-0.3-14.8l5.7-5.8c-3.5-2.5-7.9-12.8-7.9-12.8&#10;&#9;&#9;&#9;s31.6-18.7,23.4-22.8c-6-3-22.1-26-30.1-37.7c-2.9-4.2-7.8-6.6-12.8-6.2c-0.7,0.1-1.4,0.1-2.2,0h0c-5.1-0.4-10,2-12.8,6.2&#10;&#9;&#9;&#9;c-7.9,11.7-24.1,34.7-30.1,37.7c-8.1,4.1,23.4,22.8,23.4,22.8s-4.4,10.3-7.9,12.8l5.7,5.8c0,0-11.9,3.6-0.3,14.8&#10;&#9;&#9;&#9;c0,0-16.6,4.6-25.3,20.8c-8.7,16.2-27,25.8-40.1,22C1332.9,1533,1355,1552.7,1375.1,1533.9z M1435.1,1478.5c2,0,3.6,1.6,3.6,3.6&#10;&#9;&#9;&#9;c0,2-1.6,3.6-3.6,3.6s-3.6-1.6-3.6-3.6C1431.6,1480.1,1433.1,1478.5,1435.1,1478.5z M1407.8,1478.5c2,0,3.6,1.6,3.6,3.6&#10;&#9;&#9;&#9;c0,2-1.6,3.6-3.6,3.6s-3.6-1.6-3.6-3.6C1404.2,1480.1,1405.8,1478.5,1407.8,1478.5z" transform="matrix(1, 0, 0, 1, 325.01763916015625, -490.88873291015625)"/></svg>